<?xml version="1.0" encoding="UTF-8" standalone="no"?>
<!DOCTYPE svg PUBLIC "-//W3C//DTD SVG 1.1//EN"
 "http://www.w3.org/Graphics/SVG/1.1/DTD/svg11.dtd">
<!-- Generated by graphviz version 2.38.0 (20140413.2041)
 -->
<!-- Title: finite_state_machine Pages: 1 -->
<svg width="301pt" height="121pt"
 viewBox="0.00 0.00 300.99 121.00" xmlns="http://www.w3.org/2000/svg" xmlns:xlink="http://www.w3.org/1999/xlink">
<g id="graph0" class="graph" transform="scale(1 1) rotate(0) translate(4 116.997)">
<title>finite_state_machine</title>
<polygon fill="white" stroke="none" points="-4,4 -4,-116.997 296.986,-116.997 296.986,4 -4,4"/>
<!-- q0 -->
<g id="node1" class="node"><title>q0</title>
<ellipse fill="none" stroke="black" cx="19.4983" cy="-19.4983" rx="19.4965" ry="19.4965"/>
<text text-anchor="middle" x="19.4983" y="-15.7983" font-family="Times,serif" font-size="14.00">q0</text>
</g>
<!-- q0&#45;&gt;q0 -->
<g id="edge1" class="edge"><title>q0&#45;&gt;q0</title>
<path fill="none" stroke="black" d="M12.3077,-38.0201C11.0858,-47.95 13.4826,-56.9965 19.4983,-56.9965 23.258,-56.9965 25.6042,-53.4627 26.5368,-48.3881"/>
<polygon fill="black" stroke="black" points="30.0418,-48.0703 26.6888,-38.0201 23.0425,-47.9676 30.0418,-48.0703"/>
<text text-anchor="middle" x="19.4983" y="-60.7965" font-family="Times,serif" font-size="14.00">b</text>
</g>
<!-- q1 -->
<g id="node2" class="node"><title>q1</title>
<ellipse fill="none" stroke="black" cx="101.495" cy="-58.4983" rx="19.4965" ry="19.4965"/>
<text text-anchor="middle" x="101.495" y="-54.7983" font-family="Times,serif" font-size="14.00">q1</text>
</g>
<!-- q0&#45;&gt;q1 -->
<g id="edge2" class="edge"><title>q0&#45;&gt;q1</title>
<path fill="none" stroke="black" d="M37.4635,-27.7692C48.1755,-32.9915 62.2311,-39.8439 74.3505,-45.7524"/>
<polygon fill="black" stroke="black" points="73.0316,-49.0031 83.5541,-50.2393 76.0991,-42.711 73.0316,-49.0031"/>
<text text-anchor="middle" x="60.4965" y="-43.2983" font-family="Times,serif" font-size="14.00">a</text>
</g>
<!-- q1&#45;&gt;q1 -->
<g id="edge4" class="edge"><title>q1&#45;&gt;q1</title>
<path fill="none" stroke="black" d="M94.3043,-77.0201C93.0823,-86.95 95.4792,-95.9965 101.495,-95.9965 105.255,-95.9965 107.601,-92.4627 108.533,-87.3881"/>
<polygon fill="black" stroke="black" points="112.038,-87.0703 108.685,-77.0201 105.039,-86.9676 112.038,-87.0703"/>
<text text-anchor="middle" x="101.495" y="-99.7965" font-family="Times,serif" font-size="14.00">a</text>
</g>
<!-- q2 -->
<g id="node3" class="node"><title>q2</title>
<ellipse fill="none" stroke="black" cx="183.491" cy="-93.4983" rx="19.4965" ry="19.4965"/>
<text text-anchor="middle" x="183.491" y="-89.7983" font-family="Times,serif" font-size="14.00">q2</text>
</g>
<!-- q1&#45;&gt;q2 -->
<g id="edge3" class="edge"><title>q1&#45;&gt;q2</title>
<path fill="none" stroke="black" d="M114.875,-73.0389C121.341,-79.5805 129.812,-86.6778 138.993,-90.4983 143.558,-92.3977 148.624,-93.5233 153.64,-94.1461"/>
<polygon fill="black" stroke="black" points="153.478,-97.643 163.686,-94.8055 153.937,-90.658 153.478,-97.643"/>
<text text-anchor="middle" x="142.493" y="-96.2983" font-family="Times,serif" font-size="14.00">b</text>
</g>
<!-- q2&#45;&gt;q1 -->
<g id="edge6" class="edge"><title>q2&#45;&gt;q1</title>
<path fill="none" stroke="black" d="M166.971,-82.9576C160.656,-78.9877 153.165,-74.6706 145.993,-71.4983 141.073,-69.3223 135.685,-67.3826 130.428,-65.7078"/>
<polygon fill="black" stroke="black" points="131.219,-62.2921 120.637,-62.8212 129.239,-69.0064 131.219,-62.2921"/>
<text text-anchor="middle" x="142.493" y="-75.2983" font-family="Times,serif" font-size="14.00">a</text>
</g>
<!-- q3 -->
<g id="node4" class="node"><title>q3</title>
<ellipse fill="none" stroke="black" cx="269.488" cy="-41.4983" rx="19.4968" ry="19.4968"/>
<ellipse fill="none" stroke="black" cx="269.488" cy="-41.4983" rx="23.4965" ry="23.4965"/>
<text text-anchor="middle" x="269.488" y="-37.7983" font-family="Times,serif" font-size="14.00">q3</text>
</g>
<!-- q2&#45;&gt;q3 -->
<g id="edge5" class="edge"><title>q2&#45;&gt;q3</title>
<path fill="none" stroke="black" d="M200.687,-83.4721C211.92,-76.5182 227.173,-67.0751 240.368,-58.9067"/>
<polygon fill="black" stroke="black" points="242.438,-61.7412 249.099,-53.5016 238.754,-55.7894 242.438,-61.7412"/>
<text text-anchor="middle" x="224.49" y="-74.2983" font-family="Times,serif" font-size="14.00">b</text>
</g>
<!-- q3&#45;&gt;q0 -->
<g id="edge7" class="edge"><title>q3&#45;&gt;q0</title>
<path fill="none" stroke="black" d="M245.742,-39.4804C200.443,-35.4617 99.0397,-26.466 49.227,-22.0469"/>
<polygon fill="black" stroke="black" points="49.408,-18.5493 39.1378,-21.1518 48.7894,-25.5219 49.408,-18.5493"/>
<text text-anchor="middle" x="142.493" y="-34.2983" font-family="Times,serif" font-size="14.00">b</text>
</g>
<!-- q3&#45;&gt;q1 -->
<g id="edge8" class="edge"><title>q3&#45;&gt;q1</title>
<path fill="none" stroke="black" d="M246.038,-43.1484C224.859,-44.7722 192.234,-47.4467 163.993,-50.4983 153.268,-51.6572 141.517,-53.1344 131.187,-54.5033"/>
<polygon fill="black" stroke="black" points="130.481,-51.0667 121.039,-55.8726 131.417,-58.0039 130.481,-51.0667"/>
<text text-anchor="middle" x="183.491" y="-54.2983" font-family="Times,serif" font-size="14.00">a</text>
</g>
</g>
</svg>
